<svg id="Capa_1" enable-background="new 0 0 512 512" height="512" viewBox="0 0 512 512" width="512" xmlns="http://www.w3.org/2000/svg"><g><g><g><path d="m203.5 135c0 43.27-17.02 88.62-24.75 107h139.51c-7.74-18.39-24.76-63.73-24.76-107 0-50.866 19.844-95.724 39.27-135-1.188 0 16.34-.001-168.49.01 19.699 39.876 39.22 84.598 39.22 134.99zm90 242c0-43.11 16.92-87.14 24.65-105h-139.29c7.73 17.88 24.64 61.9 24.64 105 0 50.847-19.829 95.691-39.27 135 1.188 0-16.34.001 168.49-.01-19.699-39.876-39.22-84.598-39.22-134.99z"/></g></g><g><g><path d="m353.5 272h-15v-15c0-74.439 60.561-135 135-135h15v15c0 74.439-60.561 135-135 135z"/></g></g><g><g><path d="m173.5 422h-15c-74.439 0-135-60.561-135-135v-15h15c74.439 0 135 60.561 135 135z"/></g></g><g><g><path d="m173.5 150h-15c-74.439 0-135-60.561-135-135v-15h15c74.439 0 135 60.561 135 135z"/></g></g></g></svg>