<svg id="Capa_1" enable-background="new 0 0 512 512" height="512" viewBox="0 0 512 512" width="512" xmlns="http://www.w3.org/2000/svg"><g><g><path d="m256 419.681h27.081c34.976 0 63.33-28.354 63.33-63.33v-45.878h-27.081c-34.976 0-63.33 28.354-63.33 63.33z"/><g><path d="m241 449.681h30v62.319h-30z"/></g></g><path d="m256 97.123c11.844-10.96 26.523-18.894 42.801-22.562 1.495-17.923-4.601-36.361-18.315-50.074l-24.486-24.487-24.486 24.486c-13.714 13.714-19.81 32.151-18.315 50.075 16.278 3.668 30.957 11.602 42.801 22.562z"/><path d="m226 373.803c0-16.213 4.159-31.472 11.461-44.771-11.461-11.466-27.298-18.559-44.791-18.559h-27.081v45.878c0 33.998 26.791 61.73 60.412 63.257v-45.805z"/><g><path d="m319.331 176.377h20.446c4.238-8.499 6.635-18.076 6.635-28.218v-45.878h-27.081c-34.977 0-63.331 28.354-63.331 63.331v35.548c.011.01.021.02.032.03 16.648-15.392 38.892-24.813 63.299-24.813z"/><path d="m226 182.481v-16.87c0-16.213 4.159-31.472 11.461-44.771-11.461-11.466-27.298-18.559-44.791-18.559h-27.081v45.878c0 10.143 2.4 19.72 6.639 28.218h20.442c11.576 0 22.83 2.096 33.33 6.104z"/></g><g><path d="m319.331 280.473h20.446c4.238-8.499 6.635-18.076 6.635-28.218v-45.878h-27.081c-34.977 0-63.331 28.354-63.331 63.331v35.548c.011.01.021.02.032.03 16.648-15.392 38.892-24.813 63.299-24.813z"/><path d="m226 286.577v-16.87c0-16.213 4.159-31.472 11.461-44.771-11.461-11.466-27.298-18.559-44.791-18.559h-27.081v45.878c0 10.143 2.4 19.72 6.639 28.218h20.442c11.576 0 22.83 2.097 33.33 6.104z"/></g></g></svg>