<svg id="Layer_1" enable-background="new 0 0 494.161 494.161" height="512" viewBox="0 0 494.161 494.161" width="512" xmlns="http://www.w3.org/2000/svg"><path d="m168.466 31.066 5.941 50.883c1.144 8.762-5.032 16.792-13.794 17.937-8.74 1.142-16.79-5.011-17.937-13.794l-5.649-48.387c-49.855 13.784-94.919 42.289-128.63 81.74-14.467 16.931-9.641 42.924 9.873 53.564 28.098 15.319 58.742 25.203 90.183 29.387 55.451-50.275 170.153-131.102 261.157-176.9-70.76-6.15-156.632-1.196-201.144 5.57z"/><path d="m458.192 23.068c-37.159 11.306-82.858 33.999-128.952 61.049l22.779 20.975c11.195 9.722 4.205 28.081-10.498 28.081-3.72 0-7.456-1.29-10.484-3.92l-30.299-27.899c-72.047 44.804-140.926 96.77-175.142 128.746-61.962 57.904-98.565 132.768-109.372 210.7-2.414 17.409 11.88 32.704 29.412 31.472 78.483-5.513 155.652-36.969 217.614-94.875 60.517-56.554 190.762-217.055 229.046-317.836 8.203-21.593-12.005-43.217-34.104-36.493zm-278.431 381.836c-7.063 5.283-17.093 3.86-22.395-3.23l-23.274-31.119c-5.293-7.077-3.847-17.103 3.23-22.396s17.103-3.847 22.395 3.23l23.274 31.119c5.293 7.077 3.847 17.104-3.23 22.396zm66.626-126.794c-5.784 6.66-15.888 7.394-22.571 1.589l-22.125-19.215c-6.672-5.794-7.383-15.9-1.589-22.571 5.794-6.672 15.9-7.383 22.571-1.589l22.125 19.215c6.672 5.794 7.383 15.899 1.589 22.571z"/></svg>