<?xml version="1.0"?>
<svg xmlns="http://www.w3.org/2000/svg" id="Capa_1" enable-background="new 0 0 512 512" height="512px" viewBox="0 0 512 512" width="512px" class="hovered-paths"><g transform="matrix(5.53774e-17 -0.904382 0.904382 5.53774e-17 24.4782 487.522)"><path d="m361 91h-210v330h210zm-79.395 124.395c5.859 5.859 5.859 15.352 0 21.211l-19.394 19.394 19.395 19.395c5.859 5.859 5.859 15.352 0 21.211l-19.395 19.394 19.395 19.395c5.859 5.859 5.859 15.352 0 21.211l-30 30c-5.859 5.859-15.352 5.859-21.211 0s-5.859-15.352 0-21.211l19.394-19.395-19.395-19.395c-5.859-5.859-5.859-15.352 0-21.211l19.395-19.394-19.395-19.395c-5.859-5.859-5.859-15.352 0-21.211l19.395-19.394-19.395-19.395c-5.859-5.859-5.859-15.352 0-21.211l19.395-19.394-19.395-19.395c-5.859-5.859-5.859-15.352 0-21.211s15.352-5.859 21.211 0l30 30c5.859 5.859 5.859 15.352 0 21.211l-19.394 19.395z" data-original="#000000" class="hovered-path active-path" fill="#000000"/><path d="m166 512h180c8.291 0 15-6.709 15-15v-46h-210v46c0 8.291 6.709 15 15 15z" data-original="#000000" class="hovered-path active-path" fill="#000000"/><path d="m361 15c0-8.291-6.709-15-15-15h-180c-8.291 0-15 6.709-15 15v46h210z" data-original="#000000" class="hovered-path active-path" fill="#000000"/></g> </svg>
