<?xml version="1.0"?>
<svg xmlns="http://www.w3.org/2000/svg" viewBox="0 0 512 512" width="512" height="512"><g id="Solid"><path d="M178.053,233.361l179.056,47.748L273.55,310.952ZM364.687,112,336,83.313,307.313,112,336,140.687ZM243.313,176,272,204.687,300.687,176,272,147.313ZM274.69,327.534l78.5-28.034L208,444.686,67.313,304l71.767-71.766,5.475-5.475,122.4,99.45a8,8,0,0,0,7.735,1.325ZM133.657,285.657l-11.314-11.314-32,32,11.314,11.314Zm24-24-11.314-11.314-12.75,12.75,11.314,11.314ZM35.313,336,176,476.686,196.686,456,56,315.314Zm336-160L400,204.687,428.687,176,400,147.313Zm105.374,0L381.6,271.081,159.336,211.81,336,35.314ZM290.343,117.657l40,40a8,8,0,0,0,11.314,0l40-40a8,8,0,0,0,0-11.314l-40-40a8,8,0,0,0-11.314,0l-40,40A8,8,0,0,0,290.343,117.657Zm-12.686,104,40-40a8,8,0,0,0,0-11.314l-40-40a8,8,0,0,0-11.314,0l-40,40a8,8,0,0,0,0,11.314l40,40a8,8,0,0,0,11.314,0Zm104,12.686-40-40a8,8,0,0,0-11.314,0l-32,32,11.314,11.314L336,211.313,364.687,240l-2.344,2.343,11.314,11.314,8-8A8,8,0,0,0,381.657,234.343Zm64-52.686a8,8,0,0,0,0-11.314l-40-40a8,8,0,0,0-11.314,0l-40,40a8,8,0,0,0,0,11.314l40,40a8,8,0,0,0,11.314,0Z"/></g></svg>
