<?xml version="1.0" encoding="utf-8"?>
<!-- Generator: Adobe Illustrator 24.2.3, SVG Export Plug-In . SVG Version: 6.00 Build 0)  -->
<svg version="1.1" id="Capa_1" xmlns="http://www.w3.org/2000/svg" xmlns:xlink="http://www.w3.org/1999/xlink" x="0px" y="0px"
	 viewBox="0 0 369.2 369.2" style="enable-background:new 0 0 369.2 369.2;" xml:space="preserve">
<g>
	<g>
		<path d="M302,185.1c-1.9-1.6-4.3-2.4-6.9-2.5c-5.6,0-10,3.9-10,8.7c0,2.2,1.1,4.4,2.9,5.9c4,3.3,10.3,3.3,14.2,0
			C306,193.8,305.9,188.4,302,185.1z"/>
	</g>
</g>
<g>
	<g>
		<path d="M361.8,196.7L361.8,196.7c1.4-2.2,1.7-5.1,0.3-7.4c-6.1-10.2-13.1-19.6-21-28.3C310,126.6,224.2,58.6,93,161.7
			c-5.1-7.9-10.8-15.3-17-22.2c-20.8-23.1-41.3-31-59.3-22.6c-0.6,0.2-1.1,0.6-1.5,1c-5.7,5.4-9.1,12.9-9.6,20.9
			c-1.3,15.5,6,32.9,22,52.2C-13.2,234.9,4,258.6,8,263l0.7,0.8c0.4,0.5,1,0.8,1.4,1c31.7,15.7,67.8-27,80.2-43.8
			c51.8,44.6,103.2,63.3,153.5,55C317.1,263.6,360,199.5,361.8,196.7z M295.2,213.6c-11.8,0.7-21.6-8.7-21.8-21c0-1,0-2,0.1-3l0,0
			c0.6-12.4,10.6-22.2,22.4-22.2c11.7,0.3,20.6,10.3,20.4,22.5C316.4,202.2,307,212.9,295.2,213.6z"/>
	</g>
</g>
</svg>
