<?xml version="1.0" encoding="iso-8859-1"?>
<!-- Generator: Adobe Illustrator 19.0.0, SVG Export Plug-In . SVG Version: 6.00 Build 0)  -->
<svg version="1.1" id="Capa_1" xmlns="http://www.w3.org/2000/svg" xmlns:xlink="http://www.w3.org/1999/xlink" x="0px" y="0px"
	 viewBox="0 0 458.24 458.24" style="enable-background:new 0 0 458.24 458.24;" xml:space="preserve">
<g>
	<g>
		<path d="M347.73,164.48L329.383,8.32c-0.645-4.797-4.76-8.363-9.6-8.32H139.09c-4.912-0.03-9.054,3.652-9.6,8.533l-18.987,157.44
			c0.02,61.889,47.54,113.4,109.227,118.4v155.093h-37.547c-5.302,0-9.6,4.298-9.6,9.6c0.228,5.135,4.46,9.178,9.6,9.173h94.72
			c5.243,0,9.493-4.25,9.493-9.493c0-5.243-4.25-9.493-9.493-9.493h-38.187v-154.88C300.845,279.126,348.398,226.827,347.73,164.48z
			 M140.797,77.44l7.253-57.813h163.413l6.827,57.813H140.797z"/>
	</g>
</g>
<g>
</g>
<g>
</g>
<g>
</g>
<g>
</g>
<g>
</g>
<g>
</g>
<g>
</g>
<g>
</g>
<g>
</g>
<g>
</g>
<g>
</g>
<g>
</g>
<g>
</g>
<g>
</g>
<g>
</g>
</svg>
