<?xml version="1.0" encoding="iso-8859-1"?>
<!-- Generator: Adobe Illustrator 19.0.0, SVG Export Plug-In . SVG Version: 6.00 Build 0)  -->
<svg version="1.1" id="Layer_1" xmlns="http://www.w3.org/2000/svg" xmlns:xlink="http://www.w3.org/1999/xlink" x="0px" y="0px"
	 viewBox="0 0 512.001 512.001" style="enable-background:new 0 0 512.001 512.001;" xml:space="preserve">
<g>
	<g>
		<path d="M442.133,202.86c-51.263-72.922-114.058-56.837-155.609-46.193c-4.38,1.122-8.669,2.221-12.727,3.157
			c5.225-44.768,29.177-79.581,72.798-106.018l-17.308-28.558c-23.067,13.979-41.721,30.3-55.953,48.857
			c-5.296-16.853-13.574-31-24.843-42.269C226.795,10.14,194.507-0.567,152.533,0.023L136.299,0.25l-0.227,16.235
			c-0.587,41.976,10.117,74.261,31.815,95.958c17.861,17.861,42.92,28.24,74.63,31.037c-1.027,5.479-1.801,11.079-2.335,16.792
			c-4.631-1.024-9.605-2.297-14.704-3.603c-41.553-10.643-104.348-26.729-155.609,46.193c-24.497,34.848-31.9,82.012-21.408,136.395
			c12.391,64.233,49.644,130.833,86.655,154.918c45.108,29.357,83.168,15.492,105.907,7.208c5.511-2.008,12.369-4.506,14.98-4.506
			s9.469,2.499,14.98,4.506c12.323,4.489,29.144,10.618,49.15,10.618c16.909,0,36.093-4.379,56.757-17.826
			c37.011-24.086,74.263-90.687,86.655-154.918C474.033,284.872,466.629,237.708,442.133,202.86z"/>
	</g>
</g>
<g>
</g>
<g>
</g>
<g>
</g>
<g>
</g>
<g>
</g>
<g>
</g>
<g>
</g>
<g>
</g>
<g>
</g>
<g>
</g>
<g>
</g>
<g>
</g>
<g>
</g>
<g>
</g>
<g>
</g>
</svg>
