<svg id="Capa_1" enable-background="new 0 0 512 512" height="512" viewBox="0 0 512 512" width="512" xmlns="http://www.w3.org/2000/svg"><g><path d="m482 211h-452c-16.542 0-30 13.458-30 30s13.458 30 30 30h452c16.542 0 30-13.458 30-30s-13.458-30-30-30z"/><path d="m81.6 470.65c17.49 26.77 38.92 40.35 63.7 40.35h221.4c24.78 0 46.21-13.58 63.7-40.35 26.44-40.46 42.17-113.13 47.99-169.65h-444.77c5.91 56.91 21.87 129.69 47.98 169.65zm144.4 10.35h-30c-8.28 0-15-6.72-15-15s6.72-15 15-15h30c8.28 0 15 6.72 15 15s-6.72 15-15 15zm90 0h-30c-8.28 0-15-6.72-15-15s6.72-15 15-15h30c8.28 0 15 6.72 15 15s-6.72 15-15 15zm60-150h30c8.28 0 15 6.72 15 15s-6.72 15-15 15h-30c-8.28 0-15-6.72-15-15s6.72-15 15-15zm0 75c0 8.28-6.72 15-15 15h-30c-8.28 0-15-6.72-15-15s6.72-15 15-15h30c8.28 0 15 6.72 15 15zm-90-75h30c8.28 0 15 6.72 15 15s-6.72 15-15 15h-30c-8.28 0-15-6.72-15-15s6.72-15 15-15zm0 75c0 8.28-6.72 15-15 15h-30c-8.28 0-15-6.72-15-15s6.72-15 15-15h30c8.28 0 15 6.72 15 15zm-90-75h30c8.28 0 15 6.72 15 15s-6.72 15-15 15h-30c-8.28 0-15-6.72-15-15s6.72-15 15-15zm0 75c0 8.28-6.72 15-15 15h-30c-8.28 0-15-6.72-15-15s6.72-15 15-15h30c8.28 0 15 6.72 15 15zm-90-75h30c8.28 0 15 6.72 15 15s-6.72 15-15 15h-30c-8.28 0-15-6.72-15-15s6.72-15 15-15z"/><path d="m301 46c0-24.81-20.19-45-45-45s-45 20.19-45 45v135h90z"/><path d="m464.12 165.68-40.41-17.19c-7.63-3.24-11.18-12.05-7.93-19.67 3.24-7.62 12.05-11.17 19.67-7.93l37.3 15.86c12.27-48.69 11.47-92.93-15.88-104.55-49.53-21.08-106.01 86.85-126.68 148.8h128.35c1.96-5.07 3.83-10.19 5.58-15.32z"/><path d="m136.616 122.649c2.281-23.193 10.403-30.927 15.101-31.667 7.951-.374 14.283-6.939 14.283-14.982 0-8.284-6.716-15-15-15-1.718 0-39.543.752-44.469 61.418-29.594 5.81-53.012 29.065-59.021 58.582h146.98c-5.931-29.135-28.823-52.171-57.874-58.351z"/></g></svg>