<svg height="512" viewBox="0 0 58 59" width="512" xmlns="http://www.w3.org/2000/svg"><path id="Shape" d="m.66 20.94c-.18909339-.054304-.3925598.004998-.52286613.1523937-.13030634.1473957-.16421332.356598-.08713387.5376063 3.6 7.99 9.95 16.57 17.95 21.37-5.0910141-.0727888-10.12410423 1.0868461-14.67 3.38-.20518359.1396635-.32798104.371794-.32798104.62s.12279745.4803365.32798104.62c5.19 2.55 11.45 4 17.27 3.1-1.2838254 2.0445644-2.1662337 4.3150689-2.6 6.69-.0255253.1883705.0517854.375985.2026105.4916863.150825.1157014.3520628.1417681.5273895.0683137 3.73-1.17 7.53-3.61 9.26-7.25v7.28c0 .5522847.4477153 1 1 1s1-.4477153 1-1v-7.28c1.73 3.63 5.53 6.08 9.26 7.25.1753267.0734544.3765645.0473877.5273895-.0683137.1508251-.1157013.2281358-.3033158.2026105-.4916863-.4306894-2.3742321-1.3096877-4.6446951-2.59-6.69 5.81.91 12.07-.55 17.27-3.1.2051836-.1396635.327981-.371794.327981-.62s-.1227974-.4803365-.327981-.62c-4.5428881-2.2915815-9.5723568-3.4511726-14.66-3.38 7.92-4.77 14.33-13.34 18-21.37.0770795-.1810083.0431725-.3902106-.0871339-.5376063-.1303063-.1473957-.3337727-.2066977-.5228661-.1523937-8.69 2.84-18.11 8.46-23.71 16.11h-.05c3.15-11.8.69-25.84-4.13-36.74-.0774296-.17969065-.2543369-.29609281-.45-.29609281s-.3725704.11640216-.45.29609281c-4.83 11-7.27 25-4.13 36.74h-.05c-5.6-7.58-14.99-13.25-23.76-16.11z"/></svg>