<svg height="448pt" viewBox="-21 0 448 448" width="448pt" xmlns="http://www.w3.org/2000/svg"><path d="m385.613281 53.332031h-128v-10.664062c0-11.785157-9.554687-21.335938-21.335937-21.335938s-21.332032 9.550781-21.332032 21.335938v64c0 11.78125 9.550782 21.332031 21.332032 21.332031s21.335937-9.550781 21.335937-21.332031v-10.667969h128c11.78125 0 21.332031-9.550781 21.332031-21.332031 0-11.785157-9.550781-21.335938-21.332031-21.335938zm0 0"/><path d="m172.277344 149.332031c11.777344-.011719 21.324218-9.554687 21.335937-21.332031v-106.667969c0-11.78125-9.554687-21.332031-21.335937-21.332031s-21.332032 9.550781-21.332032 21.332031v106.667969c.011719 11.777344 9.554688 21.320312 21.332032 21.332031zm0 0"/><path d="m108.277344 138.667969c11.777344-.011719 21.324218-9.558594 21.335937-21.335938v-85.332031c0-11.78125-9.554687-21.332031-21.335937-21.332031s-21.332032 9.550781-21.332032 21.332031v85.332031c.011719 11.777344 9.554688 21.324219 21.332032 21.335938zm0 0"/><path d="m22.945312 234.667969h234.667969c11.78125 0 21.332031-9.550781 21.332031-21.335938 0-11.78125-9.550781-21.332031-21.332031-21.332031h-234.667969c-11.78125 0-21.332031 9.550781-21.332031 21.332031 0 11.785157 9.550781 21.335938 21.332031 21.335938zm0 0"/><path d="m12.964844 256c-28.03125 52.851562-7.894532 146.53125 34.4375 188.875 2 2 4.714844 3.125 7.542968 3.125h170.667969c2.828125 0 5.539063-1.125 7.539063-3.125 42.335937-42.34375 62.472656-136.023438 34.441406-188.875zm0 0"/></svg>