<svg id="Capa_1" enable-background="new 0 0 512 512" height="512" viewBox="0 0 512 512" width="512" xmlns="http://www.w3.org/2000/svg"><g><path d="m346.563 110.625c3.683 0 7.301.279 10.844.795-8.504-25.102-29.902-44.31-56.281-49.668v-16c0-24.555-19.679-45.071-43.867-45.734-12.255-.338-23.917 4.195-32.724 12.763-8.809 8.57-13.659 20.057-13.659 32.344v16.626c-26.379 5.358-47.777 24.567-56.281 49.668 3.542-.516 7.161-.795 10.844-.795h181.124z"/><path d="m120.5 278.875h75.25c8.284 0 15 6.716 15 15s-6.716 15-15 15h-75.25v34.875h75.25c8.284 0 15 6.716 15 15s-6.716 15-15 15h-75.25v34.875h75.25c8.284 0 15 6.716 15 15s-6.716 15-15 15h-75.25v28.438c0 24.779 20.159 44.938 44.938 44.938h181.125c24.778 0 44.938-20.159 44.938-44.938v-226.188h-271v38z"/><path d="m391.5 185.563c0-24.779-20.159-44.938-44.938-44.938h-181.124c-24.778 0-44.938 20.159-44.938 44.938v25.312h271z"/></g></svg>