<svg id="Capa_1" enable-background="new 0 0 512 512" height="512" viewBox="0 0 512 512" width="512" xmlns="http://www.w3.org/2000/svg"><g><path d="m158.44 114.559c-41.568 28.944-68.346 75.096-72.813 125.495h94.838c3.381-17.058 12.417-32.095 25.06-43.095z"/><path d="m230.43 327.678-48.344 81.642c22.958 11.006 48.229 16.769 73.913 16.769 24.768 0 49.216-5.373 71.523-15.636l-47.081-82.393c-7.686 2.58-15.899 3.999-24.442 3.999-8.961.001-17.562-1.554-25.569-4.381z"/><path d="m208.989 255.049c0 25.922 21.089 47.011 47.011 47.011s47.011-21.089 47.011-47.011c0-25.923-21.089-47.012-47.011-47.012s-47.011 21.089-47.011 47.012z"/><path d="m355.714 116.101-48.34 81.638c12.176 10.926 20.86 25.661 24.16 42.315h94.832c-4.409-49.381-30.373-94.935-70.652-123.953z"/><path d="m437.02 74.98c-48.353-48.351-112.64-74.98-181.02-74.98s-132.667 26.629-181.02 74.98c-48.351 48.353-74.98 112.64-74.98 181.02s26.629 132.667 74.98 181.02c48.353 48.351 112.64 74.98 181.02 74.98s132.667-26.629 181.02-74.98c48.351-48.353 74.98-112.64 74.98-181.02s-26.629-132.667-74.98-181.02zm-105.488 195.074c-3.383 17.056-12.419 32.09-25.062 43.088l62.303 109.029-13.005 7.447c-30.239 17.317-64.738 26.471-99.768 26.471-36.104 0-71.531-9.697-102.449-28.045l-12.888-7.647 63.97-108.031c-12.177-10.924-20.863-25.658-24.166-42.311h-125.502v-15c0-36.068 9.668-71.452 27.958-102.326 17.748-29.958 43.098-54.938 73.309-72.238l13.029-7.461 62.292 109.01c7.687-2.581 15.902-4.001 24.447-4.001 8.965 0 17.57 1.555 25.578 4.385l63.962-108.021 12.912 7.662c29.478 17.492 54.171 42.393 71.409 72.008 17.777 30.539 27.174 65.457 27.174 100.98v15h-125.503z"/></g></svg>