<?xml version="1.0" encoding="utf-8"?>
<!-- Generator: Adobe Illustrator 24.2.3, SVG Export Plug-In . SVG Version: 6.00 Build 0)  -->
<svg version="1.1" id="Layer_1" xmlns="http://www.w3.org/2000/svg" xmlns:xlink="http://www.w3.org/1999/xlink" x="0px" y="0px"
	 viewBox="0 0 512 512" style="enable-background:new 0 0 512 512;" xml:space="preserve">
<style type="text/css">
	.st0{fill:#FCFCFC;}
</style>
<g>
	<g>
		<path d="M400.8,157c-6.3,2.5-13.1,3.8-20.1,3.8c-11.3,0-22-3.3-31.2-9.6c-9.1,6.2-19.9,9.6-31.2,9.6c-11.3,0-22-3.3-31.2-9.6
			c-9.1,6.2-19.9,9.6-31.2,9.6s-22-3.3-31.2-9.6c-9.1,6.2-19.9,9.6-31.2,9.6c-11.3,0-22-3.3-31.2-9.6c-9.1,6.2-19.9,9.6-31.2,9.6
			c-7,0-13.8-1.3-20.1-3.8c-22.9,44.6-36.5,100-36.5,160.1c0,71.9,19.4,137.2,51,185.1c4,6.1,10.9,9.8,18.2,9.8H368
			c7.3,0,14.2-3.7,18.2-9.8c31.6-47.9,51-113.1,51-185.1C437.2,257,423.6,201.5,400.8,157z"/>
	</g>
</g>
<g>
	<g>
		<path d="M407.8,78.2l-27.2-27.2h0.3V14.1c0-7.8-6.3-14.1-14.1-14.1H145.2c-7.8,0-14.1,6.3-14.1,14.1v36.9h0.3l-27.2,27.2
			c-8.6,8.6-8.6,22.6,0,31.2l11.6,11.6c4.3,4.3,9.9,6.5,15.6,6.5c5.6,0,11.3-2.2,15.6-6.5c4.3-4.3,9.9-6.5,15.6-6.5
			c5.6,0,11.3,2.2,15.6,6.5c4.3,4.3,9.9,6.5,15.6,6.5c5.6,0,11.3-2.2,15.6-6.5c4.3-4.3,9.9-6.5,15.6-6.5c5.6,0,11.3,2.2,15.6,6.5
			s9.9,6.5,15.6,6.5c5.6,0,11.3-2.2,15.6-6.5s9.9-6.5,15.6-6.5c5.6,0,11.3,2.2,15.6,6.5s9.9,6.5,15.6,6.5s11.3-2.2,15.6-6.5
			s9.9-6.5,15.6-6.5c5.6,0,11.3,2.2,15.6,6.5c4.3,4.3,9.9,6.5,15.6,6.5c5.6,0,11.3-2.2,15.6-6.5l11.6-11.6
			C416.4,100.7,416.4,86.8,407.8,78.2z"/>
	</g>
</g>
<g>
	<g>
		<path class="st0" d="M315.9,254H196.1c-13.8,0-25,10.2-25,22.7v56.2c0,12.5,11.2,22.7,25,22.7h119.9c13.8,0,25-10.2,25-22.7v-56.2
			C340.9,264.2,329.7,254,315.9,254z M315.9,335.9H196.1c-1.8,0-3.3-1.3-3.3-3v-56.2c0-1.6,1.5-3,3.3-3h119.9c1.8,0,3.3,1.3,3.3,3
			v56.2h0C319.2,334.6,317.7,335.9,315.9,335.9z"/>
	</g>
</g>
</svg>
