<?xml version="1.0" encoding="utf-8"?>
<!-- Generator: Adobe Illustrator 24.2.3, SVG Export Plug-In . SVG Version: 6.00 Build 0)  -->
<svg version="1.1" id="Layer_1" xmlns="http://www.w3.org/2000/svg" xmlns:xlink="http://www.w3.org/1999/xlink" x="0px" y="0px"
	 viewBox="0 0 50 62.5" style="enable-background:new 0 0 50 62.5;" xml:space="preserve">
<style type="text/css">
	.st0{fill-rule:evenodd;clip-rule:evenodd;}
</style>
<g>
	<path class="st0" d="M9,18.4C7.1,21.5,7.5,27,8.4,30.3L6,30.9c-1.1-4-1.5-10,0.8-13.8L9,18.4z M42.3,20.3
		c-0.3-3.4-1.9-8.6-4.8-10.9l1.5-2c3.5,2.7,5.3,8.5,5.8,12.6L42.3,20.3z M27.4,18.4c2.9,3.1,2.8,5.5,1.7,9.4
		c-0.7,2.6-1.5,5.2-0.1,8.5c2,4.7,7.1,6.8,11.7,4.8c5.3-2.3,8.1-8.7,8.9-14.1c1.1-6.7-0.4-14.6-4.3-20.2
		C35.2-7.5,17.4,7.6,27.4,18.4z M17.4,49c5.1,0.2,9-3.6,9.2-8.7c0.1-3.5-1.5-5.7-3.1-7.8c-2.5-3.2-3.4-5.5-1.8-9.4
		C27,9.4,4.9,1.8,0.7,18.7C-1,25.4,0.6,33.3,4,39.1C6.8,43.9,11.6,48.9,17.4,49z"/>
</g>
</svg>
