<svg id="Solid" height="512" viewBox="0 0 512 512" width="512" xmlns="http://www.w3.org/2000/svg"><path d="m376 432a16 16 0 1 1 16 16 16.019 16.019 0 0 1 -16-16zm-329.215-128 16.5 176h97.43l16.5-176zm131.93-16 4.5-48h-142.43l4.5 48zm19.2-61.386a8 8 0 0 1 2.05 6.133l-23.18 247.253h55.215v-136a8 8 0 0 1 8-8h96v-104c0-15.325-9.833-33.309-21.219-54.133-3.1-5.671-6.351-11.639-9.571-17.867h-130.42c-3.22 6.228-6.47 12.2-9.571 17.867-9.462 17.305-17.845 32.647-20.411 46.133h47.192a8 8 0 0 1 5.915 2.614zm106.085-194.614h-128v32h128zm-56 320h89.013a32 32 0 0 0 61.974 0h73.013v57.371a24 24 0 0 0 0 45.258v25.371h-224zm168 24a8 8 0 1 0 8-8 8 8 0 0 0 -8 8zm-56 56a32 32 0 1 0 32-32 32.036 32.036 0 0 0 -32 32zm-48 16a8 8 0 1 0 8-8 8 8 0 0 0 -8 8zm-48-56a24 24 0 1 0 24-24 24.027 24.027 0 0 0 -24 24zm16.231-312h-80.462c-1.351 23.6-8.5 44.932-17.166 64h114.797c-8.667-19.068-15.818-40.4-17.169-64zm7.769 320a8 8 0 1 0 -8-8 8.009 8.009 0 0 0 8 8z"/></svg>