<?xml version="1.0" encoding="iso-8859-1"?>
<!-- Generator: Adobe Illustrator 19.0.0, SVG Export Plug-In . SVG Version: 6.00 Build 0)  -->
<svg version="1.1" id="Capa_1" xmlns="http://www.w3.org/2000/svg" xmlns:xlink="http://www.w3.org/1999/xlink" x="0px" y="0px"
	 viewBox="0 0 512 512" style="enable-background:new 0 0 512 512;" xml:space="preserve">
<g>
	<g>
		<rect x="178.073" y="192.11" width="155.85" height="125.43"/>
	</g>
</g>
<g>
	<g>
		<path d="M332.909,454.644l-13.441-63.496c-0.566-2.673-0.566-5.49-0.004-8.164l12.181-45.453H180.362v0.001l12.181,45.453
			c0.562,2.673,0.562,5.49-0.004,8.163l-13.442,63.499c-0.676,3.195-1.019,6.475-1.019,9.747v2.776
			c0,24.719,19.129,44.83,42.733,44.83c3.865,0,7.713-0.552,11.437-1.641l21.041-6.15c2-0.585,4.113-0.577,6.11,0.021l20.18,6.05
			c3.808,1.141,7.746,1.72,11.706,1.72c23.514,0,42.643-20.111,42.643-44.83v-2.776
			C333.927,461.122,333.585,457.842,332.909,454.644z"/>
	</g>
</g>
<g>
	<g>
		<path d="M325.99,135.046l-13.032-17.139c-6.733-8.855-10.441-20.093-10.441-31.644v-4.375H209.49v4.375
			c0,11.551-3.708,22.789-10.44,31.644l-13.033,17.141c-5.119,6.732-7.938,15.183-7.938,23.794v13.265h155.849v-0.001v-13.265
			C333.927,150.229,331.109,141.779,325.99,135.046z"/>
	</g>
</g>
<g>
	<g>
		<path d="M293.648,0h-75.292c-8.284,0-15,6.716-15,15v45.714c0,0.396,0.029,0.785,0.059,1.173H308.59v0.001
			c0.03-0.388,0.059-0.777,0.059-1.173V15C308.648,6.716,301.932,0,293.648,0z"/>
	</g>
</g>
<g>
</g>
<g>
</g>
<g>
</g>
<g>
</g>
<g>
</g>
<g>
</g>
<g>
</g>
<g>
</g>
<g>
</g>
<g>
</g>
<g>
</g>
<g>
</g>
<g>
</g>
<g>
</g>
<g>
</g>
</svg>
