<?xml version="1.0" encoding="iso-8859-1"?>
<!-- Generator: Adobe Illustrator 19.0.0, SVG Export Plug-In . SVG Version: 6.00 Build 0)  -->
<svg xmlns="http://www.w3.org/2000/svg" xmlns:xlink="http://www.w3.org/1999/xlink" version="1.1" id="Layer_1" x="0px" y="0px" viewBox="0 0 512 512" style="enable-background:new 0 0 512 512;" xml:space="preserve" width="512" height="512">
<g>
	<rect x="241" width="30" height="61"/>
	<rect x="451" y="241" width="61" height="30"/>
	<rect y="241" width="61" height="30"/>
	
		<rect x="400.098" y="66.907" transform="matrix(-0.7071 -0.7071 0.7071 -0.7071 640.0934 458.942)" width="29.997" height="59.994"/>
	<rect x="66.907" y="400.098" transform="matrix(0.7071 -0.7071 0.7071 0.7071 -265.1353 190.1)" width="59.994" height="29.997"/>
	
		<rect x="66.907" y="81.905" transform="matrix(-0.7071 -0.7071 0.7071 -0.7071 96.9033 233.9453)" width="59.994" height="29.997"/>
	
		<rect x="385.1" y="400.098" transform="matrix(0.7071 0.7071 -0.7071 0.7071 415.0967 -171.9387)" width="59.994" height="29.997"/>
	<path d="M94.354,222.294c-11.514,57.935,7.251,116.016,50.186,155.376c13.638,12.495,21.46,31.611,21.46,52.456V451h75v-91.516   c-50.75-7.357-90-50.729-90-103.484v-15h15c38.39,0,71.686,20.94,90,51.78c18.314-30.84,51.61-51.78,90-51.78h15v15   c0,52.755-39.25,96.127-90,103.484V451h75v-20.903c0-20.728,7.969-39.976,21.855-52.793C401.635,346.146,421,301.938,421,256   c0-104.132-95.425-183.287-200.347-161.309C157.665,107.816,106.908,159.101,94.354,222.294z"/>
	<path d="M239.081,329.081c-6.445-27.803-28.359-49.717-56.162-56.162C189.364,300.722,211.278,322.636,239.081,329.081z"/>
	<path d="M272.919,329.081c27.803-6.445,49.717-28.359,56.162-56.162C301.278,279.364,279.364,301.278,272.919,329.081z"/>
	<rect x="181" y="481" width="150" height="31"/>
</g>















</svg>
