<?xml version="1.0" encoding="iso-8859-1"?>
<!-- Generator: Adobe Illustrator 19.0.0, SVG Export Plug-In . SVG Version: 6.00 Build 0)  -->
<svg version="1.1" id="Capa_1" xmlns="http://www.w3.org/2000/svg" xmlns:xlink="http://www.w3.org/1999/xlink" x="0px" y="0px"
	 viewBox="0 0 512 512" style="enable-background:new 0 0 512 512;" xml:space="preserve">
<g>
	<g>
		<path d="M509.238,319.765c-9.464-53.081-49.673-99.493-102.441-118.25c-0.042-0.01-1.803-0.625-1.845-0.646
			c-44.368-15.214-78.543-49.372-94.416-95.555C291.9,52.942,245.479,12.751,192.283,2.924
			c-50.997-9.451-152.354,5.7-168.019,21.299C8.631,39.771-6.523,141.129,2.919,192.2c9.849,53.165,50.059,99.556,104.286,118.834
			c44.368,15.214,78.543,49.372,94.406,95.555c18.896,53.081,64.191,92.314,118.231,102.38c11.34,2.115,24.649,3.032,38.75,3.032
			c53.29,0,117.783-13.14,129.164-24.446C503.183,472.205,518.378,371.002,509.238,319.765z M84.833,163.219
			c-1.438,4.542-5.635,7.448-10.167,7.448c-1.063,0-2.146-0.156-3.219-0.5c-14.833-4.688-25.771-15.927-28.563-29.333
			c-1.198-5.76,2.51-11.417,8.281-12.615c5.74-1.177,11.396,2.5,12.615,8.281c1.198,5.76,6.729,11,14.104,13.333
			C83.5,151.604,86.615,157.604,84.833,163.219z M191.5,248.552c-1.438,4.542-5.635,7.448-10.167,7.448
			c-1.063,0-2.146-0.156-3.219-0.5c-25.99-8.229-45.115-27.646-49.896-50.667c-1.198-5.76,2.51-11.417,8.281-12.615
			c5.729-1.198,11.406,2.51,12.615,8.281c3.167,15.24,17.073,28.844,35.438,34.667C190.167,236.948,193.281,242.938,191.5,248.552z
			 M204.833,170.448c-0.729,0.146-1.458,0.219-2.177,0.219c-4.948,0-9.385-3.458-10.438-8.5
			c-3.167-15.24-17.073-28.844-35.438-34.667c-5.615-1.781-8.729-7.771-6.948-13.385c1.781-5.604,7.74-8.75,13.385-6.948
			c25.99,8.229,45.115,27.646,49.896,50.667C214.313,163.594,210.604,169.25,204.833,170.448z M256.219,290.167
			c-1.198-5.76,2.51-11.417,8.281-12.615c5.688-1.208,11.406,2.5,12.615,8.281c3.167,15.24,17.073,28.844,35.438,34.667
			c5.615,1.781,8.729,7.771,6.948,13.385c-1.438,4.542-5.635,7.448-10.167,7.448c-1.063,0-2.146-0.156-3.219-0.5
			C280.125,332.604,261,313.188,256.219,290.167z M340.833,440.552c-1.438,4.542-5.635,7.448-10.167,7.448
			c-1.063,0-2.146-0.156-3.219-0.5c-25.99-8.229-45.115-27.646-49.896-50.667c-1.198-5.76,2.51-11.417,8.281-12.615
			c5.708-1.188,11.406,2.51,12.615,8.281c3.167,15.24,17.073,28.844,35.438,34.667C339.5,428.948,342.615,434.938,340.833,440.552z
			 M418.167,405.115c-0.729,0.146-1.458,0.219-2.177,0.219c-4.948,0-9.385-3.458-10.438-8.5c-1.198-5.76-6.729-11-14.104-13.333
			c-5.615-1.781-8.729-7.771-6.948-13.385c1.781-5.625,7.74-8.75,13.385-6.948c14.833,4.698,25.781,15.938,28.563,29.333
			C427.646,398.26,423.938,403.917,418.167,405.115z M480.24,448.517c-5.053-16.895-6.4-28.773-8.031-44.069
			c-1.208-11.344-2.583-24.198-5.76-42.021c-9.458-53.063-49.656-99.458-104.24-118.854c-44.333-15.208-78.49-49.354-94.354-95.521
			c-18.625-52.344-65.01-92.521-118.188-102.344c-16.49-3.042-32.885-5.51-48-7.781c-12.371-1.862-26.178-3.945-37.728-6.167
			c23.141-5.258,58.245-10.438,89.874-10.438c12.427,0,24.292,0.802,34.625,2.708c45.823,8.469,85.844,43.219,102.531,90.146
			c17.365,50.594,56.365,89.573,106.958,106.927l1.625,0.563l0.01,0.01c45.646,16.219,80.396,56.198,88.531,101.854
			C494.708,360.604,487.396,416.669,480.24,448.517z"/>
	</g>
</g>
<g>
</g>
<g>
</g>
<g>
</g>
<g>
</g>
<g>
</g>
<g>
</g>
<g>
</g>
<g>
</g>
<g>
</g>
<g>
</g>
<g>
</g>
<g>
</g>
<g>
</g>
<g>
</g>
<g>
</g>
</svg>
