<svg id="Layer_1" enable-background="new 0 0 512 512" height="512" viewBox="0 0 512 512" width="512" xmlns="http://www.w3.org/2000/svg"><g><path d="m283.212 0h62.029v48.699h-62.029z"/><path d="m257.288 315.228c27.68 0 41.127-1.417 55.365-2.917 14.381-1.516 29.252-3.083 58.508-3.083s44.127 1.567 58.508 3.083c10.116 1.066 19.839 2.09 34.547 2.593-7.934-17.21-19.097-32.849-33.002-46.097l36.797-78.212c8.771-18.642 7.416-40.155-3.624-57.549-11.039-17.394-29.929-27.779-50.531-27.779h-58.986v-26.568h-81.286v137.7l-53.607 34.505c-23.061 14.844-41.204 35.184-53.187 58.724 15.008.562 25.191 1.634 35.135 2.682 14.237 1.501 27.684 2.918 55.363 2.918zm156.568-179.961c10.428 0 19.614 5.05 25.202 13.854 5.588 8.805 6.247 19.266 1.808 28.702l-33.92 72.096-52.076-33.52v-81.132z"/><path d="m220.455 423.419h-23.716c-24.422 0-44.291 19.869-44.291 44.291s19.868 44.29 44.29 44.29h23.716c24.422 0 44.291-19.869 44.291-44.291s-19.869-44.29-44.29-44.29z"/><path d="m474.449 345.154c-22.479-.328-35.39-1.687-47.925-3.008-14.237-1.5-27.684-2.917-55.364-2.917s-41.127 1.417-55.364 2.917c-14.381 1.516-29.252 3.083-58.509 3.083-29.255 0-44.125-1.567-58.506-3.083-12.005-1.265-23.449-2.471-43.338-2.818-3.356 12.627-5.123 25.798-5.123 39.253 0 9.833.938 19.544 2.781 29.059 12.262-8.932 27.34-14.22 43.637-14.22h23.716c40.964 0 74.291 33.327 74.291 74.291 0 16.584-5.465 31.914-14.685 44.291h118.78c49.005-26.67 79.293-77.465 79.293-133.42 0-11.399-1.259-22.596-3.684-33.428z"/><path d="m93.157 402.322v-37h-30v37c-17.061 6.16-29.291 22.512-29.291 41.671v23.716c0 24.422 19.869 44.291 44.291 44.291s44.291-19.869 44.291-44.291v-23.716c0-19.158-12.23-35.51-29.291-41.671z"/></g></svg>