<?xml version="1.0" encoding="iso-8859-1"?>
<!-- Generator: Adobe Illustrator 19.0.0, SVG Export Plug-In . SVG Version: 6.00 Build 0)  -->
<svg version="1.1" id="Capa_1" xmlns="http://www.w3.org/2000/svg" xmlns:xlink="http://www.w3.org/1999/xlink" x="0px" y="0px"
	 viewBox="0 0 512 512" style="enable-background:new 0 0 512 512;" xml:space="preserve">
<g>
	<g>
		<path d="M406,300c-92.411,0-207.499,0-300,0c-8.291,0-15,6.709-15,15c0,24.798,21.022,47,45,47h240c24.851,0,45-23.07,45-47
			C421,306.708,414.291,300,406,300z"/>
	</g>
</g>
<g>
	<g>
		<path d="M131.8,392l19.5,108.6c1.8,6.599,7.8,11.4,14.7,11.4h180c6.899,0,12.9-4.801,14.7-11.4L380.2,392H131.8z"/>
	</g>
</g>
<g>
	<g>
		<path d="M447.162,214.994c-1.26-1.435-31.787-34.995-71.162-34.995c-32,0-57.858,21.932-67.209,31.007
			c-13.694,1.71-26.933,7.416-37.791,14.064v-23.622c19.698-18.71,38.747-30.703,47.166-35.526
			c23.796,5.804,51.443,5.4,72.834-6.943c34.131-19.688,43.77-64.028,44.15-65.903c1.582-7.485-2.725-14.941-9.99-17.329
			c-1.816-0.571-45.029-14.385-79.16,5.273c-26.294,15.167-37.972,44.777-42.16,58.521c-6.63,3.759-18.732,11.232-32.84,22.277
			v-20.647c9.619-10.199,30-35.35,30-66.171c0-39.39-33.574-69.888-34.98-71.177c-5.742-5.098-14.297-5.098-20.039,0
			C244.574,5.111,211,35.609,211,74.999c0,30.82,20.381,55.972,30,66.171v20.61c-14.09-11.021-26.16-18.481-32.78-22.236
			c-4.186-13.742-15.866-43.356-42.162-58.524c-34.102-19.658-77.314-5.889-79.16-5.273c-7.266,2.388-11.572,9.858-9.99,17.344
			c0.381,1.875,10.049,46.201,44.15,65.889c21.434,12.369,49.087,12.735,72.836,6.942c8.405,4.821,27.402,16.807,47.106,35.491
			v20.695c-9.855-5.744-22.462-10.184-38.049-11.351c-9.573-9.228-35.248-30.758-66.951-30.758
			c-39.375,0-69.902,33.56-71.162,34.995c-5.127,5.698-5.127,14.312,0,20.01C66.098,236.439,96.625,270,136,270
			c30.238,0,55.113-19.684,65.667-29.518c21.91,1.924,34.633,13.916,39.333,19.541V270h30v-8.174
			c9.062-7.505,25.184-18.673,39.494-21.189C321.158,250.531,345.947,270,376,270c39.375,0,69.902-33.56,71.162-34.995
			C452.289,229.307,452.289,220.692,447.162,214.994z"/>
	</g>
</g>
<g>
</g>
<g>
</g>
<g>
</g>
<g>
</g>
<g>
</g>
<g>
</g>
<g>
</g>
<g>
</g>
<g>
</g>
<g>
</g>
<g>
</g>
<g>
</g>
<g>
</g>
<g>
</g>
<g>
</g>
</svg>
