<svg id="Layer_1" enable-background="new 0 0 512 512" height="512" viewBox="0 0 512 512" width="512" xmlns="http://www.w3.org/2000/svg"><path d="m192.53 158.4h126.94c21.17 0 38.4-17.23 38.4-38.4 0-46.17-37.57-83.73-83.74-83.73h-6.194c15.764-11.262 7.849-36.27-11.603-36.27-19.428 0-27.395 24.988-11.602 36.27h-6.861c-46.17 0-83.74 37.56-83.74 83.73 0 21.17 17.23 38.4 38.4 38.4z"/><path d="m145.07 462.4h221.86v49.6h-221.86z"/><path d="m201.6 430.4h108.8c36.644 0 56.843-23.187 56.53-47.26-.25-19.04-4.88-33.45-14.18-44.07-69.973-79.987-3.96-101.183-3.96-119.34 0-3.29 0-13.32-14.28-22.17-6.86-4.25-14.03-6.41-16.93-7.16h-123.17c-15.203 3.972-31.21 13.582-31.21 29.33 0 18.138 66.011 39.392-3.96 119.34-9.29 10.62-13.93 25.03-14.17 44.07-.315 24.238 20.101 47.26 56.53 47.26z"/></svg>