<?xml version="1.0" encoding="utf-8"?>
<!-- Generator: Adobe Illustrator 24.2.3, SVG Export Plug-In . SVG Version: 6.00 Build 0)  -->
<svg version="1.1" id="Capa_1" xmlns="http://www.w3.org/2000/svg" xmlns:xlink="http://www.w3.org/1999/xlink" x="0px" y="0px"
	 viewBox="0 0 512 512" style="enable-background:new 0 0 512 512;" xml:space="preserve">
<style type="text/css">
	.st0{fill:#020000;stroke:#000000;stroke-miterlimit:10;}
</style>
<path d="M412,512h85c6.3,0,12-4,14.1-9.9c2.1-5.9,0.3-12.6-4.5-16.6l-26.1-21.8l26.2-21.8c3.4-2.9,5.4-7.1,5.4-11.5
	c0-4.5-2-8.7-5.4-11.5l-26.2-21.8l26.2-21.8c3.4-2.8,5.4-7.1,5.4-11.5s-2-8.7-5.4-11.5l-26.2-21.9l26.2-21.9
	c4.8-4,6.6-10.7,4.5-16.6s-7.8-9.9-14.1-9.9h-85L412,512L412,512z"/>
<path d="M100,282H15c-6.3,0-12,4-14.1,9.9s-0.4,12.6,4.5,16.6l26.2,21.9L5.4,352.2C2,355.1,0,359.3,0,363.8s2,8.7,5.4,11.5
	l26.2,21.8L5.4,418.9C2,421.7,0,426,0,430.4c0,4.5,2,8.7,5.4,11.5l26.2,21.8L5.4,485.5c-4.9,4-6.7,10.7-4.5,16.6
	C3,508,8.7,512,15,512h85L100,282L100,282z"/>
<path d="M512,148.4c0-4.5-2-8.7-5.4-11.5l-26.2-21.8l26.2-21.8c3.4-2.8,5.4-7.1,5.4-11.5s-2-8.7-5.4-11.5l-26.2-21.9l26.2-21.9
	c4.8-4,6.6-10.7,4.5-16.6S503.3,0,497,0h-85v230h85c6.3,0,12-4,14.1-9.9c2.1-5.9,0.3-12.6-4.5-16.6l-26.1-21.8l26.2-21.8
	C510,157.1,512,152.9,512,148.4L512,148.4z"/>
<path d="M100,0H15C8.7,0,3,4,0.9,9.9S0.5,22.5,5.4,26.5l26.2,21.9L5.4,70.2C2,73.1,0,77.3,0,81.8s2,8.7,5.4,11.5l26.2,21.8
	L5.4,136.9C2,139.7,0,144,0,148.4c0,4.5,2,8.7,5.4,11.5l26.2,21.8L5.4,203.5c-4.9,4-6.7,10.7-4.5,16.6C3,226,8.7,230,15,230h85
	L100,0L100,0z"/>
<rect x="115" y="282" class="st0" width="280" height="230"/>
<rect x="115" class="st0" width="280" height="230"/>
</svg>
