<svg height="512pt" viewBox="0 0 512 512" width="512pt" xmlns="http://www.w3.org/2000/svg"><path d="m485.121094 122.527344c-20.285156-33.769532-46.074219-52.367188-72.617188-52.367188-26.542968 0-52.332031 18.597656-72.621094 52.367188-16.578124 27.597656-26.875 61.179687-26.875 87.636718 0 20.277344 6.109376 39.777344 17.675782 56.390626 9.28125 13.335937 21.535156 24.082031 35.820312 31.496093v213.949219h92v-213.949219c14.28125-7.414062 26.535156-18.160156 35.820313-31.496093 11.5625-16.613282 17.675781-36.113282 17.675781-56.390626 0-26.457031-10.300781-60.039062-26.878906-87.636718zm0 0"/><path d="m259.855469 141.890625-17.789063-16.171875v-25.675781h-192.800781v25.675781l-17.785156 16.171875c-17.550781 15.957031-28.535157 37.710937-30.964844 60.804687h290.300781c-2.429687-23.09375-13.414062-44.847656-30.960937-60.804687zm0 0"/><path d="m33.210938 0h226.945312v70.160156h-226.945312zm0 0"/><path d="m0 408.894531h291.332031v-176.3125h-291.332031zm91.226562-103.097656h39.300782v-39.152344h30v39.152344h39.296875v29.882813h-39.296875v39.152343h-30v-39.152343h-39.300782zm0 0"/><path d="m0 438.777344h291.332031v73.222656h-291.332031zm0 0"/></svg>