<svg height="512pt" viewBox="0 0 512 512" width="512pt" xmlns="http://www.w3.org/2000/svg"><path d="m150 90h30v60h-30zm0 0"/><path d="m210 90h60v60h-60zm0 0"/><path d="m60 90h60v60h-60zm0 0"/><path d="m75 512h180c36.214844 0 66.511719-26.808594 73.480469-61h-326.960938c6.96875 34.191406 37.265625 61 73.480469 61zm0 0"/><path d="m330 271h-330v150h330zm-60 90h-30v30h-30v-30h-90v30h-30v-30h-30v-30h30v-30h30v30h90v-30h30v30h30zm0 0"/><path d="m1.519531 241h326.960938c-6.96875-34.191406-37.265625-61-73.480469-61h-180c-36.214844 0-66.511719 26.808594-73.480469 61zm0 0"/><path d="m315 60h-8.027344l-8.527344 12.789062 35.742188 107.210938h81.625l30-90h66.1875v-30zm0 0"/><path d="m375 0c-33.183594 0-42.074219 23.832031-48.027344 30h96.054688c-5.746094-5.957031-14.242188-30-48.027344-30zm0 0"/></svg>