<?xml version="1.0" encoding="iso-8859-1"?>
<!-- Generator: Adobe Illustrator 19.0.0, SVG Export Plug-In . SVG Version: 6.00 Build 0)  -->
<svg version="1.1" id="Capa_1" xmlns="http://www.w3.org/2000/svg" xmlns:xlink="http://www.w3.org/1999/xlink" x="0px" y="0px"
	 viewBox="0 0 512 512" style="enable-background:new 0 0 512 512;" xml:space="preserve">
<g>
	<g>
		<path d="M91,91v90h30v-15c0-24.814,20.186-45,45-45c24.814,0,45,20.186,45,45v15h30v-15c0-24.814,20.186-45,45-45
			c24.814,0,45,20.186,45,45v15h30V91H91z"/>
	</g>
</g>
<g>
	<g>
		<path d="M286,151c-8.276,0-15,6.724-15,15v15h30v-15C301,157.724,294.276,151,286,151z"/>
	</g>
</g>
<g>
	<g>
		<path d="M286,271c-8.276,0-15,6.724-15,15v15h30v-15C301,277.724,294.276,271,286,271z"/>
	</g>
</g>
<g>
	<g>
		<path d="M286,391H136c-8.276,0-15,6.724-15,15v15h180v-15C301,397.724,294.276,391,286,391z"/>
	</g>
</g>
<g>
	<g>
		<path d="M166,271c-8.276,0-15,6.724-15,15v15h30v-15C181,277.724,174.276,271,166,271z"/>
	</g>
</g>
<g>
	<g>
		<path d="M91,211v90h30v-15c0-24.814,20.186-45,45-45c24.814,0,45,20.186,45,45v15h30v-15c0-24.814,20.186-45,45-45
			c24.814,0,45,20.186,45,45v15h30v-90C196.048,211,232.672,211,91,211z"/>
	</g>
</g>
<g>
	<g>
		<path d="M166,151c-8.276,0-15,6.724-15,15v15h30v-15C181,157.724,174.276,151,166,151z"/>
	</g>
</g>
<g>
	<g>
		<path d="M76,61h285V0H46C21.186,0,0,21.186,0,46v421c0,24.814,21.186,45,46,45h315V331c-100.516,0-171.731,0-285,0
			c-8.291,0-15-6.709-15-15V76C61,67.709,67.709,61,76,61z M91,406c0-24.814,20.186-45,45-45h150c24.814,0,45,20.186,45,45v30
			c0,8.291-6.709,15-15,15H106c-8.291,0-15-6.709-15-15V406z"/>
	</g>
</g>
<g>
	<g>
		<path d="M466,0h-75c0,132.991,0-9.08,0,316v196h75c24.814,0,46-20.186,46-45V46C512,21.186,490.814,0,466,0z M436,301
			c-8.284,0-15-6.716-15-15c0-8.286,6.716-15,15-15s15,6.714,15,15C451,294.284,444.284,301,436,301z M436,241
			c-8.284,0-15-6.716-15-15c0-8.286,6.716-15,15-15s15,6.714,15,15C451,234.284,444.284,241,436,241z M436,181
			c-8.284,0-15-6.716-15-15c0-8.286,6.716-15,15-15s15,6.714,15,15C451,174.284,444.284,181,436,181z M436,121
			c-8.284,0-15-6.716-15-15c0-8.286,6.716-15,15-15s15,6.714,15,15C451,114.284,444.284,121,436,121z"/>
	</g>
</g>
<g>
</g>
<g>
</g>
<g>
</g>
<g>
</g>
<g>
</g>
<g>
</g>
<g>
</g>
<g>
</g>
<g>
</g>
<g>
</g>
<g>
</g>
<g>
</g>
<g>
</g>
<g>
</g>
<g>
</g>
</svg>
