<svg height="597pt" viewBox="-147 -18 597 597.33299" width="597pt" xmlns="http://www.w3.org/2000/svg"><path d="m294.941406 247.058594c0-66.648438-44.984375-120.871094-100.273437-120.871094-10.019531.019531-19.957031 1.800781-29.355469 5.273438v-47.269532c0-5.851562-4.128906-10.890625-9.871094-12.039062l6.738282-58.457032c.40625-3.476562-.695313-6.96875-3.027344-9.582031-2.332032-2.617187-5.667969-4.113281-9.171875-4.113281h-68.613281c-3.496094 0-6.835938 1.496094-9.164063 4.105469-2.328125 2.617187-3.433594 6.101562-3.035156 9.582031l6.707031 58.21875h-20.316406c-4.457032 0-8.5625 2.414062-10.730469 6.308594-2.167969 3.894531-2.058594 8.660156.296875 12.449218l30.917969 49.816407c.449219 15.585937.183593 90.902343-42.972657 150.65625-24.15625 33.441406-38.785156 73.65625-41.195312 113.226562-2.640625 43.476563 9.417969 83.769531 34.910156 116.847657v10.324218c.015625 15.71875 12.75 28.449219 28.464844 28.464844h130.710938c15.714843-.019531 28.445312-12.75 28.460937-28.457031v-10.324219c39.570313-51.332031 40.710937-112.019531 24.09375-165.421875 34.144531-19.992187 56.425781-62.128906 56.425781-108.738281zm-194.507812-111.179688c-.144532-1.992187-.765625-3.921875-1.820313-5.617187l-20.976562-33.792969h63.117187v40.160156c-.023437 2.550782-.15625 43.941406 13.972656 93.222656h-65.71875c14.230469-49.5625 11.605469-91.386718 11.425782-93.972656zm129.464844 196.402344c-5.964844-14.105469-13.117188-27.683594-21.375-40.578125-30.40625-47.464844-39.421876-104.0625-42.089844-133.996094 8.710937-4.5625 18.398437-6.949219 28.234375-6.960937 41.753906 0 75.714843 43.207031 75.714843 96.3125 0 36.167968-15.855468 68.742187-40.484374 85.222656zm0 0"/></svg>